#!OML:ASF F:\VICON\USERDATA\INSTALL\rory3\rory3.ASF
:FULLY-SPECIFIED
:DEGREES
72
root 1.39368 18.2486 1.45077 -7.87336 -9.7248 -1.6259
lowerback 4.34232 1.74523 -0.733813
upperback 0.723566 2.27062 -1.06585
thorax -1.67468 1.13486 -0.811642
lowerneck -4.67893 -0.924974 -6.81975
upperneck 11.8731 -1.931 10.8589
head 4.45885 -0.662188 4.39646
rclavicle -1.54058e-014 2.22639e-014
rhumerus 9.96915 -18.3251 -62.1188
rradius 69.9109
rwrist -6.0628
rhand -20.9338 -7.7208
rfingers 7.12502
rthumb 5.43823 -37.631
lclavicle -1.54058e-014 2.22639e-014
lhumerus 10.185 -4.25686 67.6799
lradius 49.8569
lwrist 6.05751
lhand -15.9708 38.894
lfingers 7.12502
lthumb 10.2283 68.6253
rfemur 8.94999 9.50789 20.7032
rtibia 29.8018
rfoot -23.4433 -20.9487
rtoes -16.8595
lfemur -10.8595 -5.26835 -6.11645
ltibia 28.0497
lfoot -7.34429 22.7054
ltoes -5.01711
73
root 1.47963 18.2492 1.49426 -8.06693 -9.46318 -1.51096
lowerback 4.53912 1.82602 -1.015
upperback 0.793843 2.35898 -1.23697
thorax -1.71597 1.17993 -0.840541
lowerneck -4.82184 -1.03541 -6.80996
upperneck 11.8231 -2.08463 10.9661
head 4.48335 -0.727985 4.41988
rclavicle -1.74931e-014 -2.8625e-014
rhumerus 8.19224 -16.6938 -62.2554
rradius 68.2192
rwrist -6.34296
rhand -19.4156 -7.79033
rfingers 7.12502
rthumb 6.904 -37.6578
lclavicle -1.74931e-014 -2.8625e-014
lhumerus 9.60641 -6.00211 68.5273
lradius 48.2428
lwrist 4.33373
lhand -14.2333 39.3584
lfingers 7.12502
lthumb 11.9041 69
rfemur 8.82348 9.14628 20.1336
rtibia 30.58
rfoot -23.1732 -20.5224
rtoes -17.3819
lfemur -11.0528 -4.63002 -6.53415
ltibia 28.6571
lfoot -6.99518 21.2877
ltoes -4.87228
74
root 1.56688 18.2517 1.54137 -8.23207 -9.22288 -1.24221
lowerback 4.66751 1.91959 -1.42556
upperback 0.902056 2.45747 -1.48249
thorax -1.6824 1.23029 -0.871215
lowerneck -5.05132 -1.12702 -6.89432
upperneck 11.7012 -2.21951 11.2856
head 4.50184 -0.775681 4.52664
rclavicle 8.24956e-015 1.27222e-014
rhumerus 6.46185 -15.1496 -62.6083
rradius 66.734
rwrist -6.709
rhand -18.0403 -8.4378
rfingers 7.12502
rthumb 8.23143 -38.2575
lclavicle 8.24956e-015 1.27222e-014
lhumerus 9.08772 -7.74943 69.2842
lradius 46.7934
lwrist 2.6774
lhand -12.5422 39.427
lfingers 7.12502
lthumb 13.5345 68.9671
rfemur 8.55739 8.6927 19.2889
rtibia 31.5196
rfoot -22.9231 -19.9016
rtoes -17.97
lfemur -11.3218 -3.72613 -7.14817
ltibia 29.3943
lfoot -6.7283 19.9009
ltoes -5.35666
75
root 1.65587 18.2512 1.59131 -8.35073 -9.04571 -1.14323
lowerback 4.74487 1.99484 -1.61626
upperback 1.03619 2.54467 -1.69946
thorax -1.58587 1.27374 -0.992363
lowerneck -5.27222 -1.20896 -6.89923
upperneck 11.4936 -2.32401 11.4577
head 4.48886 -0.81449 4.57339
rclavicle -2.0773e-014 1.43125e-014
rhumerus 4.90472 -13.5899 -63.1854
rradius 65.2554
rwrist -7.18948
rhand -16.2286 -8.4341
rfingers 7.12502
rthumb 9.97964 -38.1775
lclavicle -2.0773e-014 1.43125e-014
lhumerus 8.52377 -9.6564 69.9027
lradius 45.5204
lwrist 1.54231
lhand -11.0105 39.424
lfingers 7.12502
lthumb 15.0104 68.8599
rfemur 8.15121 8.20345 18.5854
rtibia 32.609
rfoot -22.5626 -19.2703
rtoes -18.7847
lfemur -11.5866 -2.86951 -7.56801
ltibia 30.1631
lfoot -6.58805 19.0543
ltoes -5.98867
76
root 1.74263 18.2471 1.62727 -8.18047 -9.03455 -1.69949
lowerback 4.81837 2.07526 -1.21697
upperback 1.07623 2.67049 -1.71515
thorax -1.56624 1.33516 -1.24088
lowerneck -5.47422 -1.29213 -6.8347
upperneck 11.2397 -2.41798 11.4976
head 4.4561 -0.853696 4.56616
rclavicle 6.98231e-014 -2.70347e-014
rhumerus 3.49125 -12.0652 -63.894
rradius 63.7192
rwrist -7.58985
rhand -14.8823 -7.61922
rfingers 7.12502
rthumb 11.2783 -37.296
lclavicle 6.98231e-014 -2.70347e-014
lhumerus 7.77628 -11.5735 70.5781
lradius 44.5012
lwrist 0.505913
lhand -9.31602 39.6189
lfingers 7.12502
lthumb 16.6422 68.9254
rfemur 7.36316 7.91263 18.6863
rtibia 33.8086
rfoot -21.9136 -18.8329
rtoes -19.602
lfemur -12.1401 -2.13531 -7.15116
ltibia 30.933
lfoot -6.46989 18.2262
ltoes -5.85072
77
root 1.83261 18.2413 1.66745 -8.0982 -9.02564 -2.05528
lowerback 4.9125 2.16693 -1.05087
upperback 1.12232 2.79925 -1.73992
thorax -1.56071 1.39888 -1.36962
lowerneck -5.62179 -1.35248 -6.90236
upperneck 10.9585 -2.47583 11.6082
head 4.40424 -0.879077 4.60569
rclavicle -1.78409e-014 1.59028e-015
rhumerus 2.13168 -10.4995 -64.5968
rradius 62.2125
rwrist -7.56653
rhand -13.7302 -6.99121
rfingers 7.12502
rthumb 12.3892 -36.6041
lclavicle -1.78409e-014 1.59028e-015
lhumerus 6.83878 -13.2759 71.3351
lradius 43.826
lwrist -1.09347
lhand -5.87096 40.0241
lfingers 7.12502
lthumb 19.9564 69.0194
rfemur 6.58209 7.5798 18.5046
rtibia 35.0964
rfoot -21.1424 -18.2178
rtoes -20.5147
lfemur -12.5682 -1.63353 -6.94778
ltibia 31.6453
lfoot -6.54588 17.3123
ltoes -5.62458
78
root 1.92588 18.236 1.71488 -8.12287 -9.02186 -2.29606
lowerback 5.00953 2.24585 -0.971053
upperback 1.22678 2.90779 -1.76683
thorax -1.50048 1.45292 -1.44983
lowerneck -5.72556 -1.41137 -7.02904
upperneck 10.5824 -2.50941 11.6342
head 4.31387 -0.902276 4.62862
rclavicle 1.5704e-014 -1.98785e-014
rhumerus 0.860326 -8.75417 -65.3168
rradius 60.7946
rwrist -7.43083
rhand -12.8097 -6.46633
rfingers 7.12502
rthumb 13.2766 -36.0235
lclavicle 1.5704e-014 -1.98785e-014
lhumerus 5.76007 -14.8352 72.1586
lradius 43.5145
lwrist -2.54446
lhand -2.11012 39.8697
lfingers 7.12502
lthumb 23.5678 68.4456
rfemur 5.89633 7.15101 18.1181
rtibia 36.4516
rfoot -20.4715 -17.3341
rtoes -21.1559
lfemur -12.7594 -1.29023 -6.90484
ltibia 32.2664
lfoot -6.72009 16.7314
ltoes -6.71615
79
root 2.02185 18.2273 1.76451 -8.13525 -9.00916 -2.69643
lowerback 5.14024 2.3092 -0.737473
upperback 1.33882 3.00454 -1.72259
thorax -1.44697 1.50098 -1.5435
lowerneck -5.93184 -1.49139 -7.08247
upperneck 10.2811 -2.56161 11.4928
head 4.26305 -0.935881 4.58577
rclavicle -5.1684e-015 2.22639e-014
rhumerus -0.37371 -6.74343 -65.9742
rradius 59.4209
rwrist -7.63998
rhand -12.9822 -5.90486
rfingers 7.12502
rthumb 13.1104 -35.4727
lclavicle -5.1684e-015 2.22639e-014
lhumerus 4.60847 -16.562 73.0122
lradius 43.4525
lwrist -3.19671
lhand 0.589164 39.1273
lfingers 7.12502
lthumb 26.1546 67.3458
rfemur 5.2025 6.69131 17.8698
rtibia 37.884
rfoot -19.786 -16.2859
rtoes -21.2611
lfemur -12.8462 -1.15232 -6.69675
ltibia 32.7638
lfoot -7.09619 16.5492
ltoes -8.17041
80
root 2.11934 18.2214 1.82011 -8.23901 -9.02646 -3.00284
lowerback 5.40268 2.38773 -0.611594
upperback 1.41292 3.11297 -1.68159
thorax -1.51042 1.55475 -1.58877
lowerneck -6.08112 -1.54839 -7.16143
upperneck 10.0298 -2.58935 11.3726
head 4.21547 -0.958053 4.55624
rclavicle 7.25564e-015 -1.74931e-014
rhumerus -1.55071 -4.6161 -66.6697
rradius 57.9548
rwrist -7.64241
rhand -13.7359 -5.2794
rfingers 7.12502
rthumb 12.3837 -34.8926
lclavicle 7.25564e-015 -1.74931e-014
lhumerus 3.3139 -18.3694 73.9446
lradius 43.4978
lwrist -3.22547
lhand 3.39296 38.7995
lfingers 7.12502
lthumb 28.836 66.5914
rfemur 4.51917 6.19739 17.4659
rtibia 39.3943
rfoot -18.8377 -15.1525
rtoes -21.9965
lfemur -12.7607 -1.04042 -6.60208
ltibia 33.1908
lfoot -7.64387 16.2867
ltoes -9.15433
81
root 2.21637 18.2165 1.87179 -8.37039 -9.18771 -3.26862
lowerback 5.7026 2.50672 -0.521786
upperback 1.51469 3.27322 -1.65884
thorax -1.56555 1.63446 -1.63784
lowerneck -6.11881 -1.53157 -7.23991
upperneck 9.56119 -2.51574 11.3525
head 4.07483 -0.931519 4.56213
rclavicle 3.42904e-015 -1.11319e-014
rhumerus -2.53985 -2.40141 -67.4359
rradius 56.4041
rwrist -7.27896
rhand -14.453 -4.9522
rfingers 7.12502
rthumb 11.6922 -34.6059
lclavicle 3.42904e-015 -1.11319e-014
lhumerus 2.01788 -20.1196 74.8921
lradius 43.6546
lwrist -2.59994
lhand 6.28249 39.3027
lfingers 7.12502
lthumb 31.5925 66.5895
rfemur 3.67327 5.82774 17.0205
rtibia 41.0296
rfoot -17.6158 -14.0691
rtoes -23.0089
lfemur -12.5767 -0.725224 -6.54106
ltibia 33.5697
lfoot -8.07737 15.7987
ltoes -10.2249
82
root 2.31353 18.2115 1.92472 -8.56322 -9.38377 -3.34132
lowerback 5.98782 2.62694 -0.647766
upperback 1.63291 3.42213 -1.66816
thorax -1.60592 1.70882 -1.59854
lowerneck -6.03132 -1.44105 -7.12154
upperneck 9.02746 -2.33215 11.0265
head 3.87779 -0.862895 4.44411
rclavicle 3.70236e-014 -7.95139e-015
rhumerus -3.46371 -0.0126741 -68.2459
rradius 54.886
rwrist -6.55884
rhand -14.7663 -4.86751
rfingers 7.12502
rthumb 11.3901 -34.5382
lclavicle 3.70236e-014 -7.95139e-015
lhumerus 0.603193 -21.529 75.9883
lradius 43.8878
lwrist -1.98141
lhand 7.82895 38.328
lfingers 7.12502
lthumb 33.0644 65.3146
rfemur 2.74149 5.38626 16.2983
rtibia 42.7993
rfoot -16.2605 -12.831
rtoes -23.6975
lfemur -12.275 -0.361999 -6.73024
ltibia 33.9034
lfoot -8.50546 15.4487
ltoes -11.0249
83
root 2.40941 18.2082 1.97622 -8.8006 -9.46093 -3.23719
lowerback 6.36384 2.72328 -1.00903
upperback 1.72163 3.52044 -1.69092
thorax -1.7418 1.75778 -1.44529
lowerneck -5.89444 -1.34337 -6.93634
upperneck 8.61395 -2.13773 10.4711
head 3.70572 -0.796056 4.2452
rclavicle -2.2413e-014 1.27222e-014
rhumerus -4.37488 2.30945 -69.1067
rradius 53.4063
rwrist -5.0274
rhand -15.3553 -4.93464
rfingers 7.12502
rthumb 10.822 -34.6358
lclavicle -2.2413e-014 1.27222e-014
lhumerus -0.905952 -22.8884 77.1897
lradius 44.2243
lwrist -1.22935
lhand 8.16284 36.7673
lfingers 7.12502
lthumb 33.3818 63.6861
rfemur 1.75796 4.87959 15.3478
rtibia 44.6908
rfoot -14.8623 -11.4762
rtoes -23.4376
lfemur -11.9931 -0.0439105 -7.13152
ltibia 34.2156
lfoot -9.00548 15.1087
ltoes -11.2541
84
root 2.50128 18.2065 2.02411 -9.03337 -9.45779 -3.13531
lowerback 6.78858 2.8244 -1.38422
upperback 1.80297 3.61931 -1.72655
thorax -1.91312 1.80712 -1.30174
lowerneck -5.84296 -1.33604 -6.86482
upperneck 8.23691 -2.07135 10.0647
head 3.57412 -0.785313 4.10651
rclavicle 2.68359e-014 1.11319e-014
rhumerus -5.31172 4.55316 -70.0113
rradius 51.9875
rwrist -2.97191
rhand -15.917 -5.01111
rfingers 7.12502
rthumb 10.2802 -34.7399
lclavicle 2.68359e-014 1.11319e-014
lhumerus -2.4059 -24.3392 78.3899
lradius 44.4667
lwrist -0.446084
lhand 8.69688 35.8645
lfingers 7.12502
lthumb 33.8894 62.6727
rfemur 0.67959 4.42493 14.4195
rtibia 46.6766
rfoot -13.2523 -10.2176
rtoes -22.3058
lfemur -11.7762 0.342663 -7.51832
ltibia 34.5153
lfoot -9.47075 14.6053
ltoes -11.1621
